<svg width="54" height="54" viewBox="0 0 54 54" fill="none" xmlns="http://www.w3.org/2000/svg">
<path fill-rule="evenodd" clip-rule="evenodd" d="M38.25 45H11.25C10.0125 45 9 43.9875 9 42.75V15.75C9 14.5125 7.9875 13.5 6.75 13.5C5.5125 13.5 4.5 14.5125 4.5 15.75V45C4.5 47.475 6.525 49.5 9 49.5H38.25C39.4875 49.5 40.5 48.4875 40.5 47.25C40.5 46.0125 39.4875 45 38.25 45ZM45 4.5H18C15.525 4.5 13.5 6.525 13.5 9V36C13.5 38.475 15.525 40.5 18 40.5H45C47.475 40.5 49.5 38.475 49.5 36V9C49.5 6.525 47.475 4.5 45 4.5ZM45 27L39.375 23.625L33.75 27V9H45V27Z" fill="#ED0677"/>
</svg>
