<svg width="42" height="42" viewBox="0 0 42 42" fill="none" xmlns="http://www.w3.org/2000/svg">
<path fill-rule="evenodd" clip-rule="evenodd" d="M38.5 14.945V10.5C38.5 8.575 36.925 7 35 7H7C5.075 7 3.5175 8.5575 3.5175 10.5V14.945C3.5175 16.1525 4.095 17.3425 5.1625 17.9025C6.265 18.515 7 19.67 7 21C7 22.33 6.2475 23.5025 5.145 24.08C4.095 24.6575 3.5 25.8475 3.5 27.055V31.5C3.5 33.425 5.075 35 7 35H35C36.925 35 38.5 33.425 38.5 31.5V27.055C38.5 25.8475 37.905 24.6575 36.855 24.08C35.7525 23.485 35 22.33 35 21C35 19.67 35.7525 18.515 36.855 17.92C37.905 17.3425 38.5 16.1525 38.5 14.945V14.945ZM22.75 30.625H19.25V27.125H22.75V30.625ZM22.75 22.75H19.25V19.25H22.75V22.75ZM22.75 14.875H19.25V11.375H22.75V14.875Z" fill="#ED0677"/>
</svg>
