<svg width="24" height="24" viewBox="0 0 24 24" fill="none" xmlns="http://www.w3.org/2000/svg">
<path fill-rule="evenodd" clip-rule="evenodd" d="M20.4702 5.63078C20.8602 6.02078 20.8602 6.64078 20.4702 7.03078L9.1302 18.3708C8.7402 18.7608 8.1202 18.7608 7.7302 18.3708L3.5302 14.1708C3.1402 13.7808 3.1402 13.1608 3.5302 12.7708C3.9202 12.3808 4.5402 12.3808 4.9302 12.7708L8.4302 16.2708L19.0702 5.63078C19.4602 5.24078 20.0802 5.24078 20.4702 5.63078ZM18.3602 3.51078L8.4302 13.4408L5.6402 10.6508C4.8602 9.87078 3.5902 9.87078 2.8102 10.6508L1.4102 12.0508C0.630195 12.8308 0.630195 14.1008 1.4102 14.8808L7.0102 20.4808C7.7902 21.2608 9.0602 21.2608 9.8402 20.4808L22.5902 7.74078C23.3702 6.96078 23.3702 5.69078 22.5902 4.91078L21.1902 3.51078C20.4002 2.73078 19.1402 2.73078 18.3602 3.51078Z" fill="#7FDBE8"/>
</svg>
