<svg width="42" height="42" viewBox="0 0 42 42" fill="none" xmlns="http://www.w3.org/2000/svg">
<path fill-rule="evenodd" clip-rule="evenodd" d="M15.75 20.5625C14.5425 20.5625 13.5625 21.5425 13.5625 22.75C13.5625 23.9575 14.5425 24.9375 15.75 24.9375C16.9575 24.9375 17.9375 23.9575 17.9375 22.75C17.9375 21.5425 16.9575 20.5625 15.75 20.5625ZM26.25 20.5625C25.0425 20.5625 24.0625 21.5425 24.0625 22.75C24.0625 23.9575 25.0425 24.9375 26.25 24.9375C27.4575 24.9375 28.4375 23.9575 28.4375 22.75C28.4375 21.5425 27.4575 20.5625 26.25 20.5625ZM21 3.5C11.34 3.5 3.5 11.34 3.5 21C3.5 30.66 11.34 38.5 21 38.5C30.66 38.5 38.5 30.66 38.5 21C38.5 11.34 30.66 3.5 21 3.5ZM21 35C13.2825 35 7 28.7175 7 21C7 20.4925 7.035 19.985 7.0875 19.495C11.2175 17.6575 14.49 14.28 16.205 10.0975C19.3725 14.5775 24.5875 17.5 30.485 17.5C31.85 17.5 33.1625 17.3425 34.4225 17.045C34.79 18.2875 35 19.6175 35 21C35 28.7175 28.7175 35 21 35Z" fill="#ED0677"/>
</svg>
