<svg width="42" height="42" viewBox="0 0 42 42" fill="none" xmlns="http://www.w3.org/2000/svg">
<path fill-rule="evenodd" clip-rule="evenodd" d="M5.25 10.5C4.2875 10.5 3.5 11.2875 3.5 12.25V35C3.5 36.925 5.075 38.5 7 38.5H29.75C30.7125 38.5 31.5 37.7125 31.5 36.75C31.5 35.7875 30.7125 35 29.75 35H8.75C7.7875 35 7 34.2125 7 33.25V12.25C7 11.2875 6.2125 10.5 5.25 10.5ZM35 3.5H14C12.075 3.5 10.5 5.075 10.5 7V28C10.5 29.925 12.075 31.5 14 31.5H35C36.925 31.5 38.5 29.925 38.5 28V7C38.5 5.075 36.925 3.5 35 3.5ZM31.5 19.25H17.5C16.5375 19.25 15.75 18.4625 15.75 17.5C15.75 16.5375 16.5375 15.75 17.5 15.75H31.5C32.4625 15.75 33.25 16.5375 33.25 17.5C33.25 18.4625 32.4625 19.25 31.5 19.25ZM24.5 26.25H17.5C16.5375 26.25 15.75 25.4625 15.75 24.5C15.75 23.5375 16.5375 22.75 17.5 22.75H24.5C25.4625 22.75 26.25 23.5375 26.25 24.5C26.25 25.4625 25.4625 26.25 24.5 26.25ZM31.5 12.25H17.5C16.5375 12.25 15.75 11.4625 15.75 10.5C15.75 9.5375 16.5375 8.75 17.5 8.75H31.5C32.4625 8.75 33.25 9.5375 33.25 10.5C33.25 11.4625 32.4625 12.25 31.5 12.25Z" fill="#ED0677"/>
</svg>
