<svg width="44" height="44" viewBox="0 0 44 44" fill="none" xmlns="http://www.w3.org/2000/svg">
<path fill-rule="evenodd" clip-rule="evenodd" d="M12.8328 32.9998C10.8161 32.9998 9.18448 34.6498 9.18448 36.6665C9.18448 38.6832 10.8161 40.3332 12.8328 40.3332C14.8495 40.3332 16.4995 38.6832 16.4995 36.6665C16.4995 34.6498 14.8495 32.9998 12.8328 32.9998ZM3.66634 7.33317H5.49967L12.0997 21.2482L9.62468 25.7215C8.28634 28.1782 10.0463 31.1665 12.833 31.1665H32.9997C34.008 31.1665 34.833 30.3415 34.833 29.3332C34.833 28.3248 34.008 27.4998 32.9997 27.4998H12.833L14.8497 23.8332H28.508C29.883 23.8332 31.093 23.0815 31.7163 21.9448L38.2797 10.0465C38.958 8.8365 38.078 7.33317 36.6847 7.33317H9.55134L8.32301 4.7115C8.02967 4.06984 7.36968 3.6665 6.67301 3.6665H3.66634C2.65801 3.6665 1.83301 4.4915 1.83301 5.49984C1.83301 6.50817 2.65801 7.33317 3.66634 7.33317ZM31.1661 32.9998C29.1495 32.9998 27.5178 34.6498 27.5178 36.6665C27.5178 38.6832 29.1495 40.3332 31.1661 40.3332C33.1828 40.3332 34.8328 38.6832 34.8328 36.6665C34.8328 34.6498 33.1828 32.9998 31.1661 32.9998Z" fill="#E0FFF7"/>
</svg>
