<svg width="32" height="32" viewBox="0 0 32 32" fill="none" xmlns="http://www.w3.org/2000/svg">
<path fill-rule="evenodd" clip-rule="evenodd" d="M9.33293 24.0003C7.86626 24.0003 6.6796 25.2003 6.6796 26.667C6.6796 28.1337 7.86626 29.3337 9.33293 29.3337C10.7996 29.3337 11.9996 28.1337 11.9996 26.667C11.9996 25.2003 10.7996 24.0003 9.33293 24.0003ZM2.66634 5.33366H3.99967L8.79967 15.4537L6.99967 18.707C6.02634 20.4937 7.30634 22.667 9.33301 22.667H23.9997C24.733 22.667 25.333 22.067 25.333 21.3337C25.333 20.6003 24.733 20.0003 23.9997 20.0003H9.33301L10.7997 17.3337H20.733C21.733 17.3337 22.613 16.787 23.0663 15.9603L27.8397 7.30699C28.333 6.42699 27.693 5.33366 26.6797 5.33366H6.94634L6.05301 3.42699C5.83967 2.96033 5.35967 2.66699 4.85301 2.66699H2.66634C1.93301 2.66699 1.33301 3.26699 1.33301 4.00033C1.33301 4.73366 1.93301 5.33366 2.66634 5.33366ZM22.6663 24.0003C21.1996 24.0003 20.0129 25.2003 20.0129 26.667C20.0129 28.1337 21.1996 29.3337 22.6663 29.3337C24.1329 29.3337 25.3329 28.1337 25.3329 26.667C25.3329 25.2003 24.1329 24.0003 22.6663 24.0003Z" fill="#E0FFF7"/>
</svg>
