<svg width="400" height="300" viewBox="0 0 400 300" fill="none" xmlns="http://www.w3.org/2000/svg">
<rect width="400" height="300" fill="#E6E7EB"/>
<path d="M200 130C192.26 130 186 136.26 186 144C186 154.5 200 170 200 170C200 170 214 154.5 214 144C214 136.26 207.74 130 200 130ZM190 144C190 138.48 194.48 134 200 134C205.52 134 210 138.48 210 144C210 149.76 204.24 158.38 200 163.76C195.84 158.42 190 149.7 190 144Z" fill="#ED0677"/>
<path d="M200 149C202.761 149 205 146.761 205 144C205 141.239 202.761 139 200 139C197.239 139 195 141.239 195 144C195 146.761 197.239 149 200 149Z" fill="#ED0677"/>
</svg>
