<svg width="42" height="42" viewBox="0 0 42 42" fill="none" xmlns="http://www.w3.org/2000/svg">
<path fill-rule="evenodd" clip-rule="evenodd" d="M34.9998 5.25H22.7498C21.7873 5.25 20.9998 6.0375 20.9998 7V22.75L26.2498 17.5H34.9998C35.9623 17.5 36.7498 16.7125 36.7498 15.75V7C36.7498 6.0375 35.9623 5.25 34.9998 5.25ZM33.6523 26.705L29.2073 26.1975C28.1398 26.075 27.0898 26.4425 26.3373 27.195L23.1173 30.415C18.1648 27.895 14.1048 23.8525 11.5848 18.8825L14.8223 15.645C15.5748 14.8925 15.9423 13.8425 15.8198 12.775L15.3123 8.36501C15.1023 6.59751 13.6148 5.26751 11.8298 5.26751H8.80233C6.82483 5.26751 5.17983 6.91251 5.30233 8.89001C6.22983 23.835 18.1823 35.77 33.1098 36.6975C35.0873 36.82 36.7323 35.175 36.7323 33.1975V30.17C36.7498 28.4025 35.4198 26.915 33.6523 26.705Z" fill="#ED0677"/>
</svg>
