<svg width="32" height="32" viewBox="0 0 32 32" fill="none" xmlns="http://www.w3.org/2000/svg">
<path fill-rule="evenodd" clip-rule="evenodd" d="M6.66674 7.99967H25.3334C26.0667 7.99967 26.6667 7.39967 26.6667 6.66634C26.6667 5.93301 26.0667 5.33301 25.3334 5.33301H6.66674C5.93341 5.33301 5.33341 5.93301 5.33341 6.66634C5.33341 7.39967 5.93341 7.99967 6.66674 7.99967ZM26.8801 10.3997C26.7601 9.78634 26.2134 9.33301 25.5734 9.33301H6.42676C5.78676 9.33301 5.2401 9.78634 5.1201 10.3997L3.78676 17.0663C3.62676 17.893 4.25343 18.6663 5.09343 18.6663H5.33343V25.333C5.33343 26.0663 5.93343 26.6663 6.66676 26.6663H17.3334C18.0668 26.6663 18.6668 26.0663 18.6668 25.333V18.6663H24.0001V25.333C24.0001 26.0663 24.6001 26.6663 25.3334 26.6663C26.0668 26.6663 26.6668 26.0663 26.6668 25.333V18.6663H26.9068C27.7468 18.6663 28.3734 17.893 28.2134 17.0663L26.8801 10.3997ZM16.0001 23.9997H8.00007V18.6663H16.0001V23.9997Z" fill="#E0FFF7"/>
</svg>
