<svg width="44" height="44" viewBox="0 0 44 44" fill="none" xmlns="http://www.w3.org/2000/svg">
<path fill-rule="evenodd" clip-rule="evenodd" d="M9.16625 11.0002H34.8329C35.8412 11.0002 36.6662 10.1752 36.6662 9.16683C36.6662 8.1585 35.8412 7.3335 34.8329 7.3335H9.16625C8.15792 7.3335 7.33292 8.1585 7.33292 9.16683C7.33292 10.1752 8.15792 11.0002 9.16625 11.0002ZM36.9596 14.3002C36.7946 13.4568 36.043 12.8335 35.163 12.8335H8.83631C7.95631 12.8335 7.20465 13.4568 7.03965 14.3002L5.20631 23.4668C4.98631 24.6035 5.84798 25.6668 7.00298 25.6668H7.33298V34.8335C7.33298 35.8418 8.15798 36.6668 9.16631 36.6668H23.833C24.8413 36.6668 25.6663 35.8418 25.6663 34.8335V25.6668H32.9996V34.8335C32.9996 35.8418 33.8246 36.6668 34.833 36.6668C35.8413 36.6668 36.6663 35.8418 36.6663 34.8335V25.6668H36.9963C38.1513 25.6668 39.013 24.6035 38.793 23.4668L36.9596 14.3002ZM21.9996 33.0002H10.9996V25.6668H21.9996V33.0002Z" fill="#E0FFF7"/>
</svg>
